HIERARCHY
ROOT Pelvis
{
	OFFSET 0.000000 0.000000 0.000000
	CHANNELS 6 Xposition Yposition Zposition Xrotation Yrotation Zrotation
	JOINT LeftUpLeg_virtual
	{
		OFFSET 0.000000 0.000000 0.000000
		CHANNELS 3 Xrotation Yrotation Zrotation
		JOINT LeftUpLeg
		{
			OFFSET 18.735201 -5.666702 -4.541200
			CHANNELS 3 Xrotation Yrotation Zrotation
			JOINT LeftLeg
			{
				OFFSET -0.021200 -31.938179 0.493100
				CHANNELS 3 Xrotation Yrotation Zrotation
				JOINT LeftFoot
				{
					OFFSET 0.021200 -31.938179 -4.336299
					CHANNELS 3 Xrotation Yrotation Zrotation
					JOINT LeftToeBase
					{
						OFFSET 0.943001 -26.722000 15.023500
						CHANNELS 3 Xrotation Yrotation Zrotation
						End Site
						{
							OFFSET 0 0 0
						}
					}
				}
			}
		}
	}
	JOINT RightUpLeg_virtual
	{
		OFFSET 0.000000 0.000000 0.000000
		CHANNELS 3 Xrotation Yrotation Zrotation
		JOINT RightUpLeg
		{
			OFFSET -18.735201 -5.666702 -4.541200
			CHANNELS 3 Xrotation Yrotation Zrotation
			JOINT RightLeg
			{
				OFFSET 0.018946 -31.938133 0.493100
				CHANNELS 3 Xrotation Yrotation Zrotation
				JOINT RightFoot
				{
					OFFSET -0.018946 -31.938126 -4.336299
					CHANNELS 3 Xrotation Yrotation Zrotation
					JOINT RightToeBase
					{
						OFFSET -0.943001 -26.722004 15.023500
						CHANNELS 3 Xrotation Yrotation Zrotation
						End Site
						{
							OFFSET 0 0 0
						}
					}
				}
			}
		}
	}
	JOINT Hips_virtual
	{
		OFFSET 0.000000 0.000000 0.000000
		CHANNELS 3 Xrotation Yrotation Zrotation
		JOINT Hips
		{
			OFFSET -0.000000 -0.000000 -0.000000
			CHANNELS 3 Xrotation Yrotation Zrotation
			JOINT Spine
			{
				OFFSET 0.000000 10.199997 -0.299500
				CHANNELS 3 Xrotation Yrotation Zrotation
				JOINT Spine1
				{
					OFFSET 0.000000 11.900002 -1.516600
					CHANNELS 3 Xrotation Yrotation Zrotation
					JOINT Spine2
					{
						OFFSET 0.000000 13.600006 -2.842500
						CHANNELS 3 Xrotation Yrotation Zrotation
						JOINT Neck_virtual
						{
							OFFSET 0.000000 0.000000 0.000000
							CHANNELS 3 Xrotation Yrotation Zrotation
							JOINT Neck
							{
								OFFSET 0.000000 9.624100 -2.890100
								CHANNELS 3 Xrotation Yrotation Zrotation
								JOINT Head
								{
									OFFSET 0.000000 14.068802 -1.351900
									CHANNELS 3 Xrotation Yrotation Zrotation
									End Site
									{
										OFFSET 0 0 0
									}
								}
							}
						}
						JOINT LeftShoulder_virtual
						{
							OFFSET 0.000000 0.000000 0.000000
							CHANNELS 3 Xrotation Yrotation Zrotation
							JOINT LeftShoulder
							{
								OFFSET 15.263000 10.923401 -0.547700
								CHANNELS 3 Xrotation Yrotation Zrotation
								JOINT LeftArm
								{
									OFFSET 25.438599 -2.830597 -13.032500
									CHANNELS 3 Xrotation Yrotation Zrotation
									JOINT LeftForeArm
									{
										OFFSET 29.960503 0.000000 0.000000
										CHANNELS 3 Xrotation Yrotation Zrotation
										JOINT LeftHand
										{
											OFFSET 27.849251 0.000000 0.000000
											CHANNELS 3 Xrotation Yrotation Zrotation
											End Site
											{
												OFFSET 0 0 0
											}
										}
									}
								}
							}
						}
						JOINT RightShoulder_virtual
						{
							OFFSET 0.000000 0.000000 0.000000
							CHANNELS 3 Xrotation Yrotation Zrotation
							JOINT RightShoulder
							{
								OFFSET -15.263000 10.923401 -0.547700
								CHANNELS 3 Xrotation Yrotation Zrotation
								JOINT RightArm
								{
									OFFSET -25.438599 -2.830597 -13.032500
									CHANNELS 3 Xrotation Yrotation Zrotation
									JOINT RightForeArm
									{
										OFFSET -29.960503 0.000000 0.000000
										CHANNELS 3 Xrotation Yrotation Zrotation
										JOINT RightHand
										{
											OFFSET -27.849251 0.000000 0.000000
											CHANNELS 3 Xrotation Yrotation Zrotation
											End Site
											{
												OFFSET 0 0 0
											}
										}
									}
								}
							}
						}
					}
				}
			}
		}
	}
}
MOTION
Frames: 8
Frame Time: 0.03333333
11.151081 88.159012 -10.064603 0.000000 0.000000 0.000000 15.089254 -29.414391 3.078759 -32.210291 6.200516 18.206122 50.929145 10.236572 -5.738017 -0.662128 12.819985 -6.755256 0.000000 0.000000 0.000000 18.172273 16.146926 0.461920 -8.831239 -3.301050 -12.347502 58.155468 0.803021 -4.760299 4.261583 1.371557 4.245785 0.000000 0.000000 0.000000 25.262390 17.199118 -1.213896 34.892971 -25.265360 22.320939 15.978090 -0.414878 0.782872 14.173984 -0.565263 -1.400266 0.000000 0.000000 0.000000 9.617063 1.483102 0.256637 1.795517 -1.531133 2.227632 0.000000 0.000000 0.000000 22.919475 2.584185 -0.282511 6.288725 -14.868232 4.535906 -21.753010 -23.131716 -37.176416 1.912935 -65.425904 3.321674 0.000000 0.000000 0.000000 24.115940 6.432475 1.424400 7.487249 19.730741 6.980967 -21.906957 21.678858 8.167877 -4.820297 44.298568 0.221242 0.000000 0.000000 0.000000 
11.082657 89.039894 -9.696162 0.000000 0.000000 0.000000 15.268377 -29.018178 2.800730 -31.249768 6.369074 17.709531 49.824594 10.341256 -5.661596 -1.397560 12.935150 -6.657834 0.000000 0.000000 0.000000 17.344878 15.918371 0.496863 -10.102476 -3.232378 -12.538778 57.698207 0.519417 -4.813093 3.836842 1.055332 3.910359 0.000000 0.000000 0.000000 24.793288 16.850835 -1.135704 33.840480 -25.400826 21.517249 16.078788 -0.429943 0.850294 14.097509 -0.574888 -1.314118 0.000000 0.000000 0.000000 9.727773 1.464772 0.325743 1.846413 -1.512937 2.210207 0.000000 0.000000 0.000000 22.819450 2.533331 -0.266871 6.237853 -14.673323 3.941807 -20.667850 -22.685153 -37.905494 2.052619 -64.930681 3.077256 0.000000 0.000000 0.000000 24.029268 6.396173 1.564130 7.355665 19.700808 7.774791 -21.226483 21.035914 9.630475 -4.537012 44.122062 0.357259 0.000000 0.000000 0.000000 
10.991782 89.859398 -9.302672 0.000000 0.000000 0.000000 15.424896 -28.592294 2.525046 -30.353815 6.536421 17.237786 48.761950 10.428516 -5.591387 -2.117582 13.032683 -6.578442 0.000000 0.000000 0.000000 16.556493 15.549493 0.526484 -11.296205 -3.201236 -12.740126 57.028139 0.238971 -4.839768 3.239233 0.715621 3.617667 0.000000 0.000000 0.000000 24.311833 16.501127 -1.063040 32.752779 -25.489667 20.666814 16.167259 -0.439139 0.912373 14.011188 -0.581510 -1.231147 0.000000 0.000000 0.000000 9.832181 1.447942 0.390594 1.895521 -1.492707 2.191848 0.000000 0.000000 0.000000 22.710232 2.484523 -0.254384 6.189846 -14.459738 3.350220 -19.635725 -22.174380 -38.634484 2.146178 -64.394040 2.807228 0.000000 0.000000 0.000000 23.929187 6.353033 1.695716 7.230739 19.645899 8.520320 -20.592342 20.328400 11.060551 -4.281459 43.886981 0.494170 0.000000 0.000000 0.000000 
10.883058 90.619415 -8.888448 0.000000 0.000000 0.000000 15.564539 -28.140501 2.255712 -29.516300 6.702551 16.792720 47.743695 10.499509 -5.527097 -2.818492 13.113574 -6.515461 0.000000 0.000000 0.000000 15.814984 15.087439 0.546412 -12.395884 -3.195553 -12.942535 56.139186 -0.010606 -4.840782 2.469939 0.382589 3.390644 0.000000 0.000000 0.000000 23.818152 16.149801 -0.995184 31.630886 -25.538593 19.779811 16.242934 -0.444092 0.969424 13.915278 -0.585868 -1.151469 0.000000 0.000000 0.000000 9.929415 1.432120 0.453140 1.942254 -1.471106 2.173708 0.000000 0.000000 0.000000 22.590909 2.437433 -0.243797 6.145252 -14.231441 2.767754 -18.667735 -21.610003 -39.362042 2.194194 -63.828118 2.515484 0.000000 0.000000 0.000000 23.817621 6.303255 1.819107 7.114931 19.567418 9.218102 -20.012184 19.563888 12.453883 -4.056423 43.598624 0.632117 0.000000 0.000000 0.000000 
10.761192 91.321014 -8.459476 0.000000 0.000000 0.000000 15.690486 -27.664819 1.996363 -28.732758 6.867055 16.376465 46.771076 10.554677 -5.467777 -3.497243 13.177898 -6.466962 0.000000 0.000000 0.000000 15.127771 14.589264 0.553150 -13.386552 -3.201377 -13.136288 55.035882 -0.202203 -4.816555 1.537621 0.085675 3.251174 0.000000 0.000000 0.000000 23.312843 15.795887 -0.931145 30.478346 -25.555458 18.867762 16.305497 -0.447013 1.021665 13.810189 -0.589055 -1.075219 0.000000 0.000000 0.000000 10.019039 1.416390 0.514666 1.986176 -1.448886 2.156531 0.000000 0.000000 0.000000 22.460935 2.390951 -0.234063 6.104391 -13.994707 2.199644 -17.772432 -21.004560 -40.084553 2.198760 -63.244458 2.206953 0.000000 0.000000 0.000000 23.696433 6.246728 1.933871 7.010857 19.466446 9.866065 -19.487926 18.754608 13.805640 -3.862222 43.267602 0.770437 0.000000 0.000000 0.000000 
10.630059 91.964386 -8.021873 0.000000 0.000000 0.000000 15.803205 -27.166311 1.749886 -28.001108 7.029147 15.991107 45.844441 10.593307 -5.412080 -4.151383 13.224507 -6.431301 0.000000 0.000000 0.000000 14.500676 14.108003 0.543649 -14.257419 -3.206100 -13.314217 53.733283 -0.315847 -4.767587 0.457931 -0.153264 3.213978 0.000000 0.000000 0.000000 22.796928 15.438939 -0.870019 29.299592 -25.546692 17.941802 16.354937 -0.450369 1.069157 13.696473 -0.592349 -1.002577 0.000000 0.000000 0.000000 10.101098 1.399481 0.575452 2.027016 -1.426890 2.140500 0.000000 0.000000 0.000000 22.320220 2.343450 -0.224402 6.067501 -13.757199 1.649921 -16.954942 -20.371408 -40.796129 2.163652 -62.653517 1.887647 0.000000 0.000000 0.000000 23.567452 6.183068 2.039136 6.921271 19.343692 10.459654 -19.014951 17.918004 15.110725 -3.696305 42.910117 0.907607 0.000000 0.000000 0.000000 
10.492083 92.549271 -7.580644 0.000000 0.000000 0.000000 15.900989 -26.645673 1.518335 -27.321457 7.187779 15.638468 44.963610 10.613369 -5.358436 -4.778975 13.250831 -6.407453 0.000000 0.000000 0.000000 13.936718 13.679065 0.515186 -15.004353 -3.201479 -13.474058 52.255715 -0.344542 -4.694989 -0.747840 -0.325621 3.280936 0.000000 0.000000 0.000000 22.271625 15.080197 -0.811269 28.097834 -25.515398 17.010916 16.391402 -0.456622 1.111776 13.574695 -0.597066 -0.933762 0.000000 0.000000 0.000000 10.175913 1.379864 0.634757 2.064614 -1.406045 2.125267 0.000000 0.000000 0.000000 22.169157 2.293100 -0.214299 6.034841 -13.527120 1.121785 -16.216725 -19.723758 -41.489069 2.094216 -62.064310 1.564467 0.000000 0.000000 0.000000 23.432352 6.111708 2.133715 6.848812 19.199395 10.992871 -18.583090 17.075680 16.364761 -3.553674 42.546672 1.041684 0.000000 0.000000 0.000000 
10.348076 93.075302 -7.139131 0.000000 0.000000 0.000000 15.981104 -26.103491 1.303114 -26.695316 7.341923 15.320078 44.128192 10.611674 -5.305224 -5.378516 13.253085 -6.395052 0.000000 0.000000 0.000000 13.435513 13.313111 0.465798 -15.630972 -3.185144 -13.618689 50.635116 -0.296396 -4.601026 -2.054171 -0.437630 3.439189 0.000000 0.000000 0.000000 21.738021 14.722949 -0.754854 26.873229 -25.460657 16.080681 16.414905 -0.468073 1.149223 13.445259 -0.604454 -0.869033 0.000000 0.000000 0.000000 10.243697 1.355893 0.691216 2.098785 -1.387334 2.110189 0.000000 0.000000 0.000000 22.008446 2.238092 -0.203441 6.006722 -13.312590 0.618050 -15.556186 -19.073985 -42.154695 1.996839 -61.484632 1.244691 0.000000 0.000000 0.000000 23.292274 6.031948 2.216396 6.795399 19.033140 11.459983 -18.179160 16.250958 17.565131 -3.428006 42.199190 1.170982 0.000000 0.000000 0.000000 
